<?xml version="1.0" encoding="utf-8"?>
<!-- Svg Vector Icons : http://www.onlinewebfonts.com/icon -->
<!DOCTYPE svg PUBLIC "-//W3C//DTD SVG 1.1//EN" "http://www.w3.org/Graphics/SVG/1.1/DTD/svg11.dtd">
<svg version="1.1" xmlns="http://www.w3.org/2000/svg" xmlns:xlink="http://www.w3.org/1999/xlink" x="0px" y="0px" viewBox="0 0 1000 1000" enable-background="new 0 0 1000 1000" xml:space="preserve">
<metadata> Svg Vector Icons : http://www.onlinewebfonts.com/icon </metadata>
<g><g transform="translate(0.000000,511.000000) scale(0.100000,-0.100000)"><path d="M2958.2,4958.3c-628.3-164.1-1096.9-626.2-1297.7-1280.4c-49.7-168.4-56.1-224.6-56.1-503.1c0-278.5,6.5-334.7,56.1-503.1c110.1-358.4,265.6-613.2,531.2-861.6c136-129.6,222.4-187.9,395.2-272.1c317.4-155.5,459.9-187.9,837.8-187.9c330.4,0,455.6,21.6,716.9,127.4c276.4,112.3,583,352,762.2,596c110.1,149,237.5,416.7,295.8,615.4c69.1,248.3,71.3,723.3,0,967.3c-198.6,693.1-703.9,1178.9-1375.4,1321.5C3586.5,5027.4,3195.7,5018.8,2958.2,4958.3z"/><path d="M1783.5,916.2C1215.6,767.2,872.3,458.5,757.9-1.5c-47.5-190-66.9-917.7-34.6-1289.1c32.4-354.1,84.2-567.9,198.7-801.1c82.1-168.4,95-183.5,198.6-231c133.9-60.5,380-105.8,846.4-153.3c269.9-28.1,574.4-36.7,1403.5-36.7c583-2.2,1153,6.5,1269.6,15.1c198.7,17.3,209.4,21.6,209.4,69.1c0,118.8,116.6,488,222.4,710.4c203,421,494.5,749.3,887.5,1001.9l190,123.1l-10.8,237.5c-30.2,574.3-231,909-671.5,1122.8c-166.3,82-557.1,205.1-647.8,205.1c-15.1,0-56.1-60.5-92.9-133.9c-36.7-75.6-159.8-250.5-272.1-390.8c-280.7-343.3-442.6-572.2-619.7-870.2C3709.6-632,3683.7-664.4,3675-623.3c-47.5,203-120.9,684.5-120.9,777.3c0,146.8,45.3,244,213.8,470.7c131.7,179.2,161.9,267.8,97.2,291.5c-19.4,6.5-220.2,13-449.1,13c-544.1,0-552.8-8.7-330.4-304.5c248.3-328.2,252.6-349.8,159.8-876.6c-36.7-218.1-73.4-395.1-79.9-395.1c-6.5,0-51.8,64.8-97.2,146.8c-157.6,272.1-416.7,641.3-647.8,922c-125.2,155.5-256.9,341.2-293.7,416.7c-43.2,88.5-77.7,133.9-101.5,133.9C2005.9,970.2,1895.8,946.4,1783.5,916.2z"/><path d="M7008.9-778.8c-77.7-10.8-222.4-43.2-323.9-75.6c-680.2-211.6-1159.5-712.5-1364.6-1427.3c-69.1-239.7-69.1-755.7,0-1010.5c192.2-699.6,714.7-1226.5,1429.4-1440.2c183.5-56.1,630.5-75.6,855-38.9c537.7,86.4,1036.4,403.8,1340.9,852.9c470.7,697.4,462.1,1628.1-23.8,2306.1c-185.7,263.4-511.7,533.3-796.7,662.9C7769-787.4,7386.8-729.1,7008.9-778.8z M7561.7-1541c136-62.6,267.8-192.2,334.7-332.5c41-82.1,51.8-146.8,58.3-349.8c8.7-248.3,8.7-250.5,67-276.4c34.5-15.1,71.3-51.8,84.2-82.1c36.7-75.6,36.7-1224.3,0-1289.1c-51.8-99.3-54-99.3-833.5-101.5h-740.6l-51.8,54l-54,51.8v639.1v639.1l54,51.8c28.1,30.2,66.9,54,86.4,54c28.1,0,32.4,36.7,32.4,226.7c0,170.6,10.8,252.6,41,334.7C6782.2-1547.5,7198.9-1374.8,7561.7-1541z"/><path d="M7093.1-1886.5c-108-73.4-149-185.7-149-412.4v-183.5h334.7h334.7v190c0,157.6-8.7,207.3-49.7,285C7473.1-1836.8,7250.7-1780.7,7093.1-1886.5z"/><path d="M7155.7-2819.3c-71.3-36.7-125.2-133.8-125.2-218.1c0-56.1,47.5-151.1,90.7-179.2c8.6-6.5,17.3-103.6,21.6-213.8c6.5-190,10.8-205.1,62.6-246.1c36.7-25.9,73.4-36.7,103.7-25.9c95,30.2,110.1,66.9,110.1,278.5c0,172.7,6.5,205.1,43.2,239.7c62.6,56.1,75.6,164.1,32.4,256.9C7432.1-2795.5,7283.1-2748,7155.7-2819.3z"/></g></g>
</svg>